<svg xmlns="http://www.w3.org/2000/svg" viewBox="0 0 48 48"><defs><style>.cls-1{fill:#9dcc6b;}.cls-2{fill:#b5e08c;}.cls-3{fill:#be927c;}.cls-4{fill:#919191;}.cls-5{fill:#db5669;}.cls-6{fill:#f26674;}.cls-7{fill:#edebf2;}</style></defs><title>17. Green Energy</title><g id="_17._Green_Energy" data-name="17. Green Energy"><path class="cls-1" d="M18.59,18.2C7.51,20.54-.54,12.49,1.8,1.41,13.08-1,21,7.38,18.59,18.2Z"/><path class="cls-2" d="M18.86,16.57C9.75,17.13,3.38,10.35,4.53,1,13.65.47,20,7.24,18.86,16.57Z"/><path class="cls-1" d="M19.41,22.94C17.06,12.18,24.87,3.75,36.2,6.16,38.54,17.24,30.49,25.29,19.41,22.94Z"/><path class="cls-2" d="M19.14,21.32C18,12,24.35,5.22,33.47,5.78,34.62,15.1,28.25,21.88,19.14,21.32Z"/><path class="cls-3" d="M27,41H4.5a4.5,4.5,0,0,1,0-9h11A2.5,2.5,0,0,0,18,29.5V13a1,1,0,0,1,2,0V29.5A4.51,4.51,0,0,1,15.5,34H4.5a2.5,2.5,0,0,0,0,5H27A1,1,0,0,1,27,41Z"/><path class="cls-3" d="M19,20c-.6,0,.1.51-10.71-10.29A1,1,0,0,1,9.71,8.29l10,10A1,1,0,0,1,19,20Z"/><path class="cls-3" d="M10.62,11.62a1,1,0,0,1-1-1V6a1,1,0,0,1,2,0C11.62,10.28,12,11.62,10.62,11.62Z"/><path class="cls-3" d="M14.62,15.62a1,1,0,0,1-1-1V10a1,1,0,0,1,2,0C15.62,14.28,16,15.62,14.62,15.62Z"/><path class="cls-3" d="M13,14c-4.72,0-6,.34-6-1a1,1,0,0,1,1-1h5A1,1,0,0,1,13,14Z"/><path class="cls-3" d="M19,24a1,1,0,0,1-.71-1.71l10-10a1,1,0,0,1,1.42,1.42C18.88,24.53,19.6,24,19,24Z"/><path class="cls-3" d="M32,15.62c-4.28,0-5.62.34-5.62-1a1,1,0,0,1,1-1H32A1,1,0,0,1,32,15.62Z"/><path class="cls-3" d="M28,19.62c-4.28,0-5.62.34-5.62-1a1,1,0,0,1,1-1H28A1,1,0,0,1,28,19.62Z"/><path class="cls-3" d="M25,18a1,1,0,0,1-1-1V12a1,1,0,0,1,2,0C26,16.72,26.34,18,25,18Z"/><path class="cls-4" d="M47,37c-4.72,0-6,.34-6-1a1,1,0,0,1,1-1h5A1,1,0,0,1,47,37Z"/><path class="cls-4" d="M47,45c-4.72,0-6,.34-6-1a1,1,0,0,1,1-1h5A1,1,0,0,1,47,45Z"/><path class="cls-5" d="M42,33V47c-1.16,0-3.09.13-3.82-2H32a5,5,0,0,1-3.54-8.54C30.35,34.63,31.61,35,38.18,35,38.88,33,40.72,33,42,33Z"/><path class="cls-6" d="M42,33V44.83A3,3,0,0,1,40.18,43H34.26a5.05,5.05,0,0,1-4.65-7.39c1.47-.81,2-.61,8.57-.61C38.88,33,40.72,33,42,33Z"/><path class="cls-7" d="M32,42c-1.2,0-1-1.17-1-3a1,1,0,0,1,2,0C33,40.85,33.2,42,32,42Z"/><path class="cls-7" d="M36,42c-1.2,0-1-1.17-1-3a1,1,0,0,1,2,0C37,40.85,37.2,42,36,42Z"/></g></svg>