<svg xmlns="http://www.w3.org/2000/svg" viewBox="0 0 48 48"><defs><style>.cls-1{fill:#fc6;}.cls-2{fill:#ffde76;}.cls-3{fill:#dad7e5;}.cls-4{fill:#edebf2;}.cls-5{fill:#f16f39;}.cls-6{fill:#f8834b;}.cls-7{fill:#7c7d7d;}.cls-8{fill:#919191;}.cls-9{fill:#9fdbf3;}.cls-10{fill:#b2e5fb;}</style></defs><title>12. Home With Solar Panel</title><g id="_12._Home_With_Solar_Panel" data-name="12. Home With Solar Panel"><path class="cls-1" d="M41,10a3,3,0,1,1-3.87-2.87A3,3,0,0,1,41,10Z"/><path class="cls-2" d="M40.87,10.87a3,3,0,0,1-3.74-3.74A3,3,0,0,1,40.87,10.87Z"/><path class="cls-2" d="M38,4c-1.2,0-1-1.17-1-3a1,1,0,0,1,2,0C39,2.85,39.2,4,38,4Z"/><path class="cls-2" d="M30.93,4.34a1,1,0,0,1,1.41-1.41c1.31,1.3,2.27,2,1.42,2.83S31.8,5.21,30.93,4.34Z"/><path class="cls-2" d="M31,11c-1.85,0-3,.2-3-1s1.17-1,3-1A1,1,0,0,1,31,11Z"/><path class="cls-2" d="M42.24,15.66a1,1,0,0,1,1.42-1.42c1.3,1.31,2.26,2,1.41,2.83S43.11,16.52,42.24,15.66Z"/><path class="cls-2" d="M47,11c-1.85,0-3,.2-3-1s1.17-1,3-1A1,1,0,0,1,47,11Z"/><path class="cls-2" d="M42.24,4.34c1.31-1.3,2-2.26,2.83-1.41S45,4.46,43.66,5.76A1,1,0,0,1,42.24,4.34Z"/><path class="cls-3" d="M17,28V47H1V28L9,14C10.29,16.27,9,13.91,17,28Z"/><path class="cls-4" d="M17,28c0,17.84-.1,17,0,17A13,13,0,0,1,4,32V26L9.93,15.63Z"/><path class="cls-5" d="M41,28H17L9,14H33Z"/><path class="cls-6" d="M39.86,26h-6A23.82,23.82,0,0,1,13.14,14c-.06-.1-.34,0,19.86,0Z"/><rect class="cls-3" x="17" y="28" width="24" height="19"/><path class="cls-4" d="M41,28V45H37A17,17,0,0,1,20,28Z"/><rect class="cls-7" x="6" y="37" width="6" height="10"/><path class="cls-8" d="M12,37c0,8.55-.1,8,0,8a3,3,0,0,1-3-3V37Z"/><rect class="cls-9" x="23" y="34" width="6" height="4"/><rect class="cls-9" x="23" y="38" width="6" height="4"/><rect class="cls-9" x="29" y="38" width="6" height="4"/><rect class="cls-9" x="29" y="34" width="6" height="4"/><path class="cls-9" d="M22.46,21h-5l-2.29-4h5Z"/><path class="cls-10" d="M21.89,20a5.92,5.92,0,0,1-5.14-3c-.05-.1-.13,0,3.42,0Z"/><polygon class="cls-9" points="27.46 21 22.46 21 20.17 17 25.17 17 27.46 21"/><polygon class="cls-9" points="32.46 21 27.46 21 25.17 17 30.17 17 32.46 21"/><path class="cls-9" d="M34.74,25h-5l-2.28-4h5Z"/><path class="cls-10" d="M34.17,24A5.91,5.91,0,0,1,29,21c-.06-.1-.1,0,3.42,0Z"/><path class="cls-9" d="M29.74,25h-5l-2.28-4h5Z"/><path class="cls-10" d="M29.17,24A5.91,5.91,0,0,1,24,21c-.06-.1-.1,0,3.42,0Z"/><path class="cls-9" d="M24.74,25h-5l-2.28-4h5Z"/><path class="cls-10" d="M24.17,24A5.91,5.91,0,0,1,19,21c-.06-.1-.1,0,3.42,0Z"/><path class="cls-10" d="M26.89,20a5.92,5.92,0,0,1-5.14-3c-.05-.1-.13,0,3.42,0Z"/><path class="cls-10" d="M31.89,20a5.92,5.92,0,0,1-5.14-3c-.05-.1-.13,0,3.42,0Z"/><path class="cls-10" d="M29,34v3H28a3,3,0,0,1-3-3Z"/><path class="cls-10" d="M29,38v3H28a3,3,0,0,1-3-3Z"/><path class="cls-10" d="M35,38v3H34a3,3,0,0,1-3-3Z"/><path class="cls-10" d="M35,34v3H34a3,3,0,0,1-3-3Z"/></g></svg>