<svg xmlns="http://www.w3.org/2000/svg" viewBox="0 0 48 48"><defs><style>.cls-1{fill:#fc6;}.cls-2{fill:#ffde76;}.cls-3{fill:#dad7e5;}.cls-4{fill:#edebf2;}.cls-5{fill:#9fdbf3;}.cls-6{fill:#b2e5fb;}.cls-7{fill:#7c7d7d;}.cls-8{fill:#919191;}</style></defs><title>20. Solar Energy</title><g id="_20._Solar_Energy" data-name="20. Solar Energy"><path class="cls-1" d="M15,10a3,3,0,1,1-3.87-2.87A3,3,0,0,1,15,10Z"/><path class="cls-2" d="M14.87,10.87a3,3,0,0,1-3.74-3.74A3,3,0,0,1,14.87,10.87Z"/><path class="cls-2" d="M12,4c-1.2,0-1-1.17-1-3a1,1,0,0,1,2,0C13,2.85,13.2,4,12,4Z"/><path class="cls-2" d="M4.93,4.34A1,1,0,0,1,6.34,2.93c1.31,1.3,2.27,2,1.42,2.83S5.8,5.21,4.93,4.34Z"/><path class="cls-2" d="M5,11c-1.85,0-3,.2-3-1S3.17,9,5,9A1,1,0,0,1,5,11Z"/><path class="cls-2" d="M4.93,15.66c1.3-1.31,2-2.27,2.83-1.42s-.12,1.54-1.42,2.83A1,1,0,0,1,4.93,15.66Z"/><path class="cls-2" d="M12,20c-1.2,0-1-1.17-1-3a1,1,0,0,1,2,0C13,18.85,13.2,20,12,20Z"/><path class="cls-2" d="M16.24,15.66a1,1,0,0,1,1.42-1.42c1.3,1.31,2.26,2,1.41,2.83S17.11,16.52,16.24,15.66Z"/><path class="cls-2" d="M21,11c-1.85,0-3,.2-3-1s1.17-1,3-1A1,1,0,0,1,21,11Z"/><path class="cls-2" d="M16.24,4.34c1.31-1.3,2-2.26,2.83-1.41S19,4.46,17.66,5.76A1,1,0,0,1,16.24,4.34Z"/><path class="cls-3" d="M44.51,37a2,2,0,0,1-2,2h-29a2,2,0,0,1-2-2.43l3.11-14a2,2,0,0,1,2-1.57H39.4a2,2,0,0,1,2,1.57C44.72,37.73,44.51,36.71,44.51,37Z"/><path class="cls-4" d="M44.51,37H19a4,4,0,0,1-3.9-4.87L17.55,21H39.4a2,2,0,0,1,2,1.57C44.72,37.73,44.51,36.71,44.51,37Z"/><path class="cls-5" d="M22.92,25c-.4,4.72-.32,3.69-.42,5H17.1l1.11-5Z"/><path class="cls-6" d="M22.92,25l-.34,4c-2.77,0-4-2.1-3.59-4Z"/><polygon class="cls-5" points="28 25 28 30 22.5 30 22.92 25 28 25"/><path class="cls-6" d="M28,25v4c-2.88,0-4.34-1.92-4.16-4Z"/><path class="cls-5" d="M33.5,30H28V25h5.08C33.48,29.72,33.4,28.69,33.5,30Z"/><path class="cls-6" d="M33.42,29C30.52,29,29,27.07,29,25c0-.1-.38,0,4.08,0Z"/><path class="cls-5" d="M38.9,30H33.5l-.42-5h4.71Z"/><path class="cls-6" d="M38.68,29a4.38,4.38,0,0,1-4.52-4h3.63Z"/><path class="cls-5" d="M33.92,35H28V30h5.5C33.9,34.72,33.82,33.69,33.92,35Z"/><path class="cls-6" d="M33.84,34H33a4,4,0,0,1-4-4c0-.1-.42,0,4.5,0Z"/><polygon class="cls-5" points="28 30 28 35 22.08 35 22.5 30 28 30"/><path class="cls-6" d="M28,30v4h-.91a3.69,3.69,0,0,1-3.67-4Z"/><path class="cls-5" d="M22.5,30c-.4,4.72-.32,3.69-.42,5H16l1.11-5Z"/><path class="cls-6" d="M22.5,30l-.34,4H21.09a3.29,3.29,0,0,1-3.21-4Z"/><path class="cls-5" d="M40,35H33.92l-.42-5h5.4Z"/><path class="cls-6" d="M39.79,34h-.86a4.37,4.37,0,0,1-4.35-4c0-.1-.4,0,4.32,0Z"/><rect class="cls-7" x="26" y="39" width="4" height="4"/><path class="cls-8" d="M30,39v3a3,3,0,0,1-3-3Z"/><path class="cls-7" d="M34,45v2H22V45a2,2,0,0,1,2-2h8A2,2,0,0,1,34,45Z"/><path class="cls-8" d="M34,45H27a2,2,0,0,1-2-2c0-.1-.53,0,7,0A2,2,0,0,1,34,45Z"/></g></svg>